<svg width="8" height="10" viewBox="0 0 8 10" fill="none" xmlns="http://www.w3.org/2000/svg">
<path d="M4 10C2.85833 10 1.90617 9.59829 1.1435 8.79487C0.380834 7.99145 -0.000333115 6.99145 2.18436e-07 5.79487C2.18436e-07 5.26496 0.116667 4.73504 0.35 4.20513C0.583333 3.67521 0.875 3.16667 1.225 2.67949C1.575 2.19231 1.95417 1.73504 2.3625 1.30769C2.77083 0.880342 3.15 0.508547 3.5 0.192308C3.56667 0.123932 3.64383 0.0748718 3.7315 0.0451282C3.81917 0.0153846 3.90867 0.00034188 4 0C4.09167 0 4.18117 0.0150428 4.2685 0.0451282C4.35583 0.0752137 4.433 0.124274 4.5 0.192308C4.85 0.508547 5.22917 0.880342 5.6375 1.30769C6.04583 1.73504 6.425 2.19231 6.775 2.67949C7.125 3.16667 7.41667 3.67521 7.65 4.20513C7.88333 4.73504 8 5.26496 8 5.79487C8 6.99145 7.61867 7.99145 6.856 8.79487C6.09333 9.59829 5.14133 10 4 10Z" fill="#023C5F"/>
</svg>
