<svg width="31" height="34" viewBox="0 0 31 34" fill="none" xmlns="http://www.w3.org/2000/svg">
<path d="M19.3985 5.90472C19.4527 5.72951 19.5214 5.4369 19.3678 4.93295C19.2738 4.62588 19.0696 3.94311 18.6449 3.50599L19.4798 1.98511C19.6208 1.77377 19.7961 1.36736 19.7382 1.12171C19.6912 0.924826 19.5322 0.765874 19.2684 0.726136C19.0027 0.686398 18.8274 0.892313 18.6901 1.12352L17.7738 2.75277C17.4359 2.48364 17.1522 2.34998 16.6462 2.19464C15.392 1.8388 14.277 2.43668 14.0908 2.55589L13.3101 1.13074C13.2071 0.906763 12.8999 0.708073 12.6541 0.727942C12.4843 0.742393 12.3306 0.861607 12.215 1.091C12.0975 1.32582 12.3812 1.85686 12.5041 2.08807L13.1258 3.26576C13.1258 3.27118 13.124 3.27479 13.124 3.28201C13.0138 3.39581 11.5427 4.96365 12.0035 7.60442C12.0054 7.61165 11.9981 7.61707 11.9909 7.61346C11.4921 7.19621 10.6915 6.62723 9.59459 6.21721C8.32777 5.74396 6.22603 5.52902 4.77126 5.93182C4.30682 6.06006 0.632848 7.13299 0.0708185 10.0772C-0.200257 11.4987 0.378038 12.6746 0.609355 13.128C2.20508 16.2438 6.19712 16.6322 6.3706 16.6466C7.80007 16.764 8.99642 16.419 9.36689 16.307C10.4259 15.991 11.3078 15.4978 12.0957 15.0553C12.6035 14.7699 13.0156 14.5098 13.3047 14.3201C13.9553 13.8451 14.9745 13.0919 16.2124 12.1418C19.0822 9.93994 19.3388 9.5841 20.4159 9.09099C21.0882 8.78392 23.2839 7.75073 25.7471 8.43531C26.2657 8.57981 27.4115 8.91397 28.3132 9.93271C28.5102 10.1549 28.8391 10.5342 29.0487 11.1303C29.0993 11.2766 29.4915 12.4434 28.9674 13.5994C28.2861 15.1041 26.5422 15.5177 25.7236 15.7001C24.8905 15.8862 24.0339 15.9151 23.1845 15.8248C22.6134 15.7634 21.9448 15.6749 21.2056 15.5448C19.0316 15.1619 18.5599 14.8259 17.4178 14.6453C16.7203 14.5351 13.1927 14.0745 10.5795 16.4154C8.30066 18.4565 8.17958 21.314 8.17235 21.6175C8.16512 21.9173 8.1344 25.1939 10.7982 27.3903C13.2306 29.3971 16.7564 29.5561 19.3081 27.9991C20.6526 27.1772 21.7839 25.8604 22.458 24.0144C22.8158 23.0101 22.9008 22.1521 22.9152 21.585C22.9405 20.5825 22.7598 19.86 22.4472 19.3C22.2068 18.8701 21.9827 18.7058 21.7532 18.6516C21.4388 18.5775 21.1641 18.7256 21.1243 18.7473C20.846 18.9027 20.7412 19.1537 20.7141 19.2242C20.7123 19.2314 20.5261 19.8257 20.9057 20.1779C21.3593 20.6006 21.2761 22.9505 20.2243 24.8074C20.0201 25.1686 19.825 25.4107 19.7617 25.4883C19.1708 26.2054 18.513 26.5522 18.1913 26.7202C17.5046 27.0815 16.7654 27.2603 16.1203 27.3452C14.9474 27.4987 13.7565 27.2458 12.7409 26.6389C12.3812 26.424 11.0241 25.6094 10.341 23.9458C9.19521 21.1623 10.9662 18.5486 11.1072 18.3463C11.4542 17.9164 12.0831 17.2517 13.0589 16.7731C13.4005 16.6069 13.9987 16.3468 14.8553 16.2402C17.4865 15.9151 19.8503 17.3077 22.711 17.5895C24.37 17.7539 25.785 17.6112 26.7826 17.4432C27.1928 17.3728 27.5904 17.2481 27.959 17.0548C28.7253 16.6539 29.9325 15.8085 30.5848 14.2353C30.677 14.0149 30.7493 13.7963 30.8071 13.5832C30.8071 13.5832 31.0186 12.8047 30.9987 12.0569C30.9571 10.592 29.8204 9.21923 29.6975 9.07292C28.5012 7.65861 26.9615 7.20524 26.2531 7.00835C23.0761 6.11967 20.1557 7.29013 19.0533 8.00361C17.3528 9.10183 16.0353 10.0826 15.1498 10.7744C14.1595 11.5475 10.5885 14.3924 8.61691 14.8656C7.92116 15.0336 7.21997 15.0625 7.21997 15.0625C7.14949 15.0625 6.39771 15.0932 5.68207 14.9614C5.3351 14.8982 2.70567 14.4141 1.81654 12.2827C1.71173 12.0334 1.42439 11.3145 1.56173 10.4114C1.78763 8.93204 3.04722 7.68209 4.79295 7.13299C4.79295 7.13299 7.17479 6.20998 9.5964 7.35877C9.86386 7.48521 10.6265 7.87175 10.9319 8.13005C10.9572 8.15172 11.0476 8.22939 11.1813 8.3161C11.2301 8.3468 11.4234 8.47144 11.6349 8.54369C11.7993 8.59968 12.215 8.74418 12.6162 8.54188C12.9433 8.37751 13.0788 8.07406 13.1204 7.98193C13.2541 7.68571 13.236 7.39851 13.227 7.26304C13.2198 7.15827 13.2107 7.16369 13.1909 6.98126C13.1764 6.85663 13.1529 6.62542 13.1619 6.34003C13.1746 5.97517 13.236 5.68255 13.283 5.46941C13.2921 5.42606 13.3011 5.38271 13.3083 5.35923C13.4854 4.73426 13.9264 4.26824 13.9264 4.26824C13.9282 4.26643 13.9535 4.24114 13.977 4.21586C14.1884 4.00452 14.8751 3.38678 15.8492 3.45903C16.601 3.51322 17.2949 3.96298 17.6491 4.55002C18.1262 5.34297 17.8046 6.09438 18.3304 6.37796C18.5419 6.49176 18.8708 6.51885 19.1021 6.36893C19.2937 6.24249 19.3569 6.03477 19.3985 5.90472Z" fill="black"/>
<path d="M10.9318 28.7919C11.2444 29.061 11.698 29.406 12.289 29.7149C13.7871 30.4988 15.166 30.5241 15.8021 30.4934C17.8785 30.3941 19.3387 29.3518 19.9098 28.893C19.9333 28.8678 20.1212 28.6781 20.367 28.7251C20.4013 28.7323 20.5965 28.772 20.6778 28.9581C20.7718 29.1712 20.6399 29.3952 20.6182 29.4295C20.6182 29.4295 20.6074 29.4476 20.5857 29.4747C20.5694 29.4927 20.5405 29.5216 20.5044 29.5578C20.3254 29.7366 19.7598 30.2712 18.296 30.8583C18.1478 30.9179 17.9273 31.0028 17.6545 31.0949C17.3545 31.196 16.937 31.3116 16.4292 31.3749C15.784 31.4561 15.2889 31.4146 14.9094 31.3821C14.5407 31.3496 14.116 31.308 13.5775 31.1581C13.1004 31.0244 12.757 30.8673 12.439 30.721C12.2601 30.6379 11.745 30.3995 11.1197 29.9714C10.227 29.3609 10.1927 29.1224 10.1981 29.0086C10.2053 28.8768 10.2776 28.7359 10.3896 28.6673C10.5396 28.5806 10.7547 28.6275 10.9318 28.7919Z" fill="black"/>
<path d="M18.466 31.8917C18.4316 31.8502 18.3792 31.787 18.2888 31.7707C18.1479 31.7454 18.0413 31.8448 18.0268 31.8574C17.6961 32.0958 16.8648 32.6305 15.6775 32.6883C15.6666 32.6883 15.6504 32.6883 15.6359 32.6901C15.5636 32.6901 15.3269 32.6919 15.2546 32.6883C14.0691 32.6305 13.236 32.0976 12.9053 31.8574C12.8908 31.8448 12.7842 31.7454 12.6433 31.7707C12.5529 31.787 12.4987 31.852 12.4662 31.8917C12.3125 32.0778 12.3505 32.3306 12.3613 32.3975C12.3668 32.4174 12.3758 32.4463 12.3921 32.4788C12.4228 32.5456 12.4643 32.5962 12.5692 32.6937C12.6216 32.7425 12.6884 32.8021 12.7698 32.8671C13.2197 33.1904 14.136 33.698 15.4642 33.6637C16.7925 33.6962 17.7087 33.1904 18.1587 32.8671C18.2401 32.8021 18.3069 32.7425 18.3593 32.6937C18.4641 32.5962 18.5057 32.5456 18.5364 32.4788C18.5527 32.4463 18.5617 32.4174 18.5672 32.3975C18.5816 32.3306 18.6196 32.0778 18.466 31.8917Z" fill="black"/>
<path d="M12.4625 1.80627C12.9615 1.80627 13.3661 1.40193 13.3661 0.903137C13.3661 0.404348 12.9615 0 12.4625 0C11.9634 0 11.5589 0.404348 11.5589 0.903137C11.5589 1.40193 11.9634 1.80627 12.4625 1.80627Z" fill="black"/>
<path d="M19.2593 1.80627C19.7583 1.80627 20.1628 1.40193 20.1628 0.903137C20.1628 0.404348 19.7583 0 19.2593 0C18.7602 0 18.3557 0.404348 18.3557 0.903137C18.3557 1.40193 18.7602 1.80627 19.2593 1.80627Z" fill="black"/>
</svg>
