<svg width="196" height="84" viewBox="0 0 196 84" fill="none" xmlns="http://www.w3.org/2000/svg">
<path d="M5.41483 42.4989V50.1498H17.0955V42.4989C17.0955 41.4053 17.3434 40.5874 17.8343 40.0406C18.3253 39.4937 18.9753 39.2227 19.7749 39.2227C20.5885 39.2227 21.2478 39.4937 21.7528 40.0312C22.2578 40.5734 22.5104 41.3959 22.5104 42.4989V63.5399C22.5104 64.6429 22.2532 65.4702 21.7435 66.017C21.2338 66.5638 20.5792 66.8349 19.7749 66.8349C18.9613 66.8349 18.3113 66.5592 17.825 66.0077C17.3387 65.4562 17.0955 64.6336 17.0955 63.5399V54.5618H5.41483V63.5399C5.41483 64.6429 5.15765 65.4702 4.64796 66.017C4.13828 66.5638 3.48363 66.8349 2.67936 66.8349C1.86573 66.8349 1.21576 66.5592 0.729459 66.0077C0.243153 65.4515 0 64.6289 0 63.5399V42.4989C0 41.4053 0.238477 40.5874 0.720107 40.0406C1.19706 39.4937 1.8517 39.2227 2.67936 39.2227C3.49299 39.2227 4.1523 39.4937 4.65731 40.0312C5.16232 40.5687 5.41483 41.3959 5.41483 42.4989Z" fill="white"/>
<path d="M45.9279 43.8447H33.7375V50.4019H44.9646C45.7923 50.4019 46.4048 50.5889 46.8163 50.9581C47.2278 51.3273 47.4289 51.8181 47.4289 52.4256C47.4289 53.0332 47.2278 53.5286 46.8304 53.9119C46.4282 54.2951 45.811 54.4868 44.9693 54.4868H33.7375V62.0815H46.3487C47.1998 62.0815 47.8404 62.2778 48.2706 62.6751C48.7008 63.0677 48.9159 63.5958 48.9159 64.2501C48.9159 64.8811 48.7008 65.3952 48.2706 65.7878C47.8404 66.1804 47.1998 66.3813 46.3487 66.3813H31.638C30.4596 66.3813 29.6133 66.1196 29.0942 65.5962C28.5752 65.0727 28.318 64.2314 28.318 63.063V42.9894C28.318 42.2136 28.4349 41.578 28.664 41.0872C28.8931 40.5965 29.2579 40.2366 29.7489 40.0123C30.2398 39.788 30.8711 39.6758 31.6333 39.6758H45.9232C46.7883 39.6758 47.4289 39.8674 47.845 40.2506C48.2659 40.6339 48.4716 41.134 48.4716 41.7556C48.4716 42.3865 48.2612 42.896 47.845 43.2745C47.4289 43.6531 46.7883 43.8447 45.9279 43.8447Z" fill="white"/>
<path d="M60.489 54.959H58.5952V63.5399C58.5952 64.671 58.3474 65.5029 57.847 66.0357C57.3467 66.5685 56.6967 66.8396 55.8971 66.8396C55.0321 66.8396 54.3681 66.5591 53.8911 66.003C53.4188 65.4468 53.1804 64.6242 53.1804 63.5446V42.999C53.1804 41.8352 53.4422 40.9893 53.9613 40.4658C54.485 39.9424 55.3266 39.6807 56.4957 39.6807H65.2959C66.5117 39.6807 67.5498 39.7321 68.4148 39.8349C69.2752 39.9377 70.0561 40.148 70.7482 40.4612C71.5852 40.8117 72.3287 41.3165 72.9739 41.9755C73.6192 42.6298 74.1055 43.3916 74.4422 44.2609C74.7742 45.1302 74.9426 46.0509 74.9426 47.0184C74.9426 49.0094 74.3814 50.5984 73.2592 51.7902C72.1369 52.982 70.4302 53.8233 68.1483 54.3234C69.1069 54.8328 70.0234 55.5853 70.9025 56.5808C71.7769 57.5763 72.5578 58.6372 73.2452 59.7589C73.9325 60.8806 74.4656 61.8948 74.849 62.8015C75.2325 63.7082 75.4242 64.3298 75.4242 64.671C75.4242 65.0215 75.312 65.372 75.0875 65.7179C74.8631 66.0637 74.5544 66.3395 74.1663 66.5358C73.7782 66.7367 73.3293 66.8349 72.815 66.8349C72.2071 66.8349 71.6974 66.69 71.2859 66.4049C70.8744 66.1198 70.519 65.7599 70.2198 65.3206C69.9205 64.8813 69.5184 64.241 69.0087 63.3904L66.839 59.7823C66.0628 58.4596 65.3661 57.4501 64.7535 56.7584C64.1409 56.0667 63.519 55.5946 62.8831 55.3376C62.2425 55.0852 61.4476 54.959 60.489 54.959ZM63.5845 43.7374H58.5905V51.0798H63.4395C64.7395 51.0798 65.8337 50.9677 66.7174 50.7433C67.6059 50.519 68.2839 50.1357 68.7515 49.5936C69.2191 49.0514 69.4529 48.3083 69.4529 47.3642C69.4529 46.6258 69.2659 45.9715 68.8871 45.406C68.5083 44.8404 67.9893 44.4198 67.3206 44.1394C66.6894 43.873 65.4456 43.7374 63.5845 43.7374Z" fill="white"/>
<path d="M135.081 66.3816H126.916C125.738 66.3816 124.896 66.1152 124.391 65.5871C123.886 65.059 123.634 64.2177 123.634 63.0633V42.9897C123.634 41.8119 123.891 40.966 124.405 40.4472C124.92 39.9331 125.757 39.6714 126.912 39.6714H135.567C136.844 39.6714 137.947 39.7508 138.882 39.9097C139.818 40.0686 140.655 40.3724 141.398 40.8211C142.029 41.1997 142.59 41.6764 143.077 42.2513C143.563 42.8261 143.933 43.4664 144.19 44.1628C144.447 44.8592 144.573 45.5976 144.573 46.3782C144.573 49.0515 143.236 51.0051 140.566 52.2437C144.077 53.3607 145.831 55.5339 145.831 58.7635C145.831 60.2591 145.448 61.6004 144.681 62.7969C143.914 63.9933 142.88 64.8767 141.58 65.4469C140.767 65.788 139.832 66.0264 138.775 66.1666C137.723 66.3115 136.488 66.3816 135.081 66.3816ZM129.044 43.7375V50.6406H134.001C135.347 50.6406 136.39 50.5144 137.124 50.2573C137.858 50.0003 138.419 49.5189 138.808 48.7991C139.112 48.2897 139.261 47.7195 139.261 47.0886C139.261 45.7425 138.78 44.8452 137.821 44.4012C136.862 43.9572 135.399 43.7375 133.43 43.7375H129.044ZM134.679 54.5197H129.049V62.3155H134.861C138.518 62.3155 140.346 60.9975 140.346 58.3615C140.346 57.0155 139.874 56.034 138.924 55.4264C137.975 54.8235 136.558 54.5197 134.679 54.5197Z" fill="white"/>
<path d="M168.122 43.8447H155.931V50.4019H167.158C167.986 50.4019 168.599 50.5889 169.01 50.9581C169.417 51.3273 169.623 51.8181 169.623 52.4256C169.623 53.0332 169.422 53.5286 169.024 53.9119C168.622 54.2951 168.005 54.4868 167.163 54.4868H155.936V62.0815H168.547C169.398 62.0815 170.039 62.2778 170.469 62.6751C170.899 63.0677 171.114 63.5958 171.114 64.2501C171.114 64.8811 170.899 65.3952 170.469 65.7878C170.039 66.1804 169.398 66.3813 168.547 66.3813H153.841C152.663 66.3813 151.816 66.1196 151.297 65.5962C150.778 65.0727 150.521 64.2314 150.521 63.063V42.9894C150.521 42.2136 150.638 41.578 150.867 41.0872C151.096 40.5965 151.461 40.2366 151.952 40.0123C152.443 39.788 153.074 39.6758 153.836 39.6758H168.126C168.991 39.6758 169.632 39.8674 170.048 40.2506C170.469 40.6339 170.675 41.134 170.675 41.7556C170.675 42.3865 170.464 42.896 170.048 43.2745C169.623 43.6531 168.982 43.8447 168.122 43.8447Z" fill="white"/>
<path d="M193.017 43.8447H180.822V50.4019H192.049C192.876 50.4019 193.489 50.5889 193.9 50.9581C194.307 51.3273 194.513 51.8181 194.513 52.4256C194.513 53.0332 194.312 53.5286 193.914 53.9119C193.512 54.2951 192.895 54.4868 192.053 54.4868H180.822V62.0815H193.433C194.284 62.0815 194.925 62.2778 195.355 62.6751C195.785 63.0677 196 63.5958 196 64.2501C196 64.8811 195.785 65.3952 195.355 65.7878C194.925 66.1804 194.284 66.3813 193.433 66.3813H178.727C177.548 66.3813 176.702 66.1196 176.183 65.5962C175.664 65.0727 175.407 64.2314 175.407 63.063V42.9894C175.407 42.2136 175.524 41.578 175.753 41.0872C175.982 40.5965 176.347 40.2366 176.838 40.0123C177.329 39.788 177.96 39.6758 178.722 39.6758H193.012C193.877 39.6758 194.518 39.8674 194.934 40.2506C195.355 40.6339 195.56 41.134 195.56 41.7556C195.56 42.3865 195.35 42.896 194.934 43.2745C194.518 43.6531 193.877 43.8447 193.017 43.8447Z" fill="white"/>
<path d="M105.997 14.5772C106.13 14.1447 106.3 13.4223 105.921 12.1781C105.689 11.4201 105.185 9.73445 104.136 8.6553L106.197 4.90059C106.545 4.37886 106.978 3.37552 106.835 2.76906C106.719 2.283 106.327 1.89058 105.675 1.79248C105.02 1.69438 104.587 2.20273 104.248 2.77352L101.986 6.79579C101.151 6.13135 100.451 5.80137 99.2017 5.41787C96.1055 4.53939 93.3527 6.01541 92.8932 6.30972L90.9659 2.79136C90.7115 2.23841 89.9531 1.74789 89.3463 1.79694C88.927 1.83261 88.5477 2.12693 88.2622 2.69325C87.9722 3.27296 88.6726 4.58399 88.976 5.15477L90.5108 8.06222C90.5108 8.0756 90.5063 8.08452 90.5063 8.10235C90.2342 8.38329 86.6025 12.2539 87.7402 18.7734C87.7447 18.7912 87.7268 18.8046 87.709 18.7957C86.4776 17.7656 84.5012 16.3609 81.793 15.3487C78.6655 14.1803 73.4768 13.6497 69.8854 14.6441C68.7388 14.9607 59.6686 17.6095 58.281 24.8781C57.6118 28.3876 59.0395 31.2906 59.6106 32.4099C63.55 40.1021 73.4055 41.0608 73.8338 41.0965C77.3628 41.3864 80.3163 40.5346 81.2309 40.2582C83.8453 39.4778 86.0225 38.2604 87.9677 37.1679C89.2214 36.4633 90.2386 35.8212 90.9525 35.353C92.5586 34.1802 95.0749 32.3207 98.131 29.9751C105.216 24.5392 105.849 23.6608 108.508 22.4434C110.168 21.6853 115.589 19.1346 121.67 20.8247C122.95 21.1814 125.779 22.0064 128.005 24.5214C128.491 25.0699 129.303 26.0063 129.821 27.4779C129.946 27.8391 130.914 30.7198 129.62 33.5737C127.938 37.2883 123.633 38.3095 121.612 38.7599C119.555 39.2192 117.44 39.2905 115.343 39.0676C113.934 38.9159 112.283 38.6974 110.458 38.3764C105.091 37.431 103.926 36.6016 101.107 36.1556C99.3847 35.8836 90.6759 34.7465 84.2246 40.5257C78.5986 45.5647 78.2997 52.6193 78.2819 53.3684C78.264 54.1087 78.1882 62.1978 84.7644 67.6203C90.7695 72.5745 99.4739 72.9669 105.773 69.123C109.093 67.0941 111.886 63.8433 113.55 59.2859C114.433 56.8065 114.643 54.6884 114.679 53.2882C114.741 50.8133 114.295 49.0296 113.523 47.6472C112.93 46.5859 112.376 46.1801 111.81 46.0463C111.034 45.8635 110.355 46.2291 110.257 46.2827C109.57 46.6662 109.311 47.286 109.245 47.4599C109.24 47.4777 108.781 48.9448 109.717 49.8144C110.837 50.8579 110.632 56.6594 108.035 61.2435C107.531 62.1354 107.049 62.7329 106.893 62.9247C105.434 64.695 103.81 65.5512 103.016 65.9659C101.321 66.8577 99.4962 67.2992 97.9034 67.5088C95.0079 67.8878 92.0678 67.2635 89.5605 65.7652C88.6726 65.2346 85.3221 63.2234 83.6356 59.1164C80.8071 52.2447 85.1793 45.7921 85.5273 45.2927C86.3839 44.2314 87.9365 42.5904 90.3457 41.4087C91.1889 40.9984 92.6657 40.3563 94.7804 40.0932C101.276 39.2905 107.112 42.7286 114.174 43.4243C118.27 43.8301 121.763 43.4778 124.226 43.0631C125.239 42.8891 126.22 42.5815 127.131 42.1043C129.022 41.1144 132.003 39.0274 133.613 35.1434C133.841 34.5994 134.019 34.0598 134.162 33.5336C134.162 33.5336 134.684 31.6116 134.635 29.7655C134.532 26.149 131.726 22.76 131.423 22.3988C128.469 18.9072 124.668 17.7879 122.919 17.3018C115.076 15.1079 107.866 17.9975 105.144 19.7589C100.946 22.4701 97.6938 24.8915 95.5076 26.5994C93.0627 28.508 84.2469 35.5313 79.3794 36.6997C77.6617 37.1144 75.9307 37.1857 75.9307 37.1857C75.7567 37.1857 73.9007 37.2615 72.1339 36.936C71.2773 36.7799 64.7859 35.5849 62.5908 30.3229C62.3321 29.7075 61.6227 27.9327 61.9618 25.7031C62.5194 22.051 65.6291 18.9651 69.9389 17.6095C69.9389 17.6095 75.8191 15.3308 81.7975 18.1669C82.4578 18.4791 84.3405 19.4334 85.0945 20.071C85.157 20.1246 85.3801 20.3163 85.7102 20.5303C85.8307 20.6062 86.3081 20.9138 86.8301 21.0922C87.236 21.2305 88.2622 21.5872 89.2526 21.0878C90.0602 20.682 90.3948 19.9328 90.4974 19.7054C90.8275 18.9741 90.7829 18.265 90.7606 17.9306C90.7428 17.672 90.7205 17.6853 90.6714 17.2349C90.6357 16.9273 90.5777 16.3565 90.6 15.6519C90.6312 14.7511 90.7829 14.0287 90.8989 13.5025C90.9212 13.3955 90.9435 13.2885 90.9614 13.2305C91.3986 11.6876 92.4872 10.5371 92.4872 10.5371C92.4917 10.5327 92.5541 10.4702 92.6121 10.4078C93.1341 9.88606 94.8295 8.36099 97.2342 8.53936C99.0902 8.67314 100.803 9.7835 101.678 11.2328C102.856 13.1904 102.062 15.0454 103.36 15.7455C103.882 16.0265 104.694 16.0934 105.265 15.7232C105.738 15.4111 105.894 14.8983 105.997 14.5772Z" fill="white"/>
<path d="M85.0946 71.0807C85.8664 71.7451 86.9862 72.5969 88.4451 73.3594C92.1437 75.2947 95.5478 75.3572 97.1182 75.2813C102.244 75.0361 105.849 72.4631 107.259 71.3304C107.317 71.268 107.781 70.7998 108.388 70.9157C108.473 70.9336 108.955 71.0317 109.155 71.491C109.387 72.0172 109.062 72.5701 109.008 72.6548C109.008 72.6548 108.981 72.6994 108.928 72.7663C108.888 72.8109 108.816 72.8823 108.727 72.9714C108.285 73.4129 106.889 74.7329 103.275 76.1821C102.909 76.3293 102.365 76.5389 101.691 76.7663C100.951 77.016 99.9201 77.3014 98.6664 77.4575C97.0736 77.6581 95.8512 77.5556 94.9143 77.4753C94.0041 77.395 92.9557 77.2925 91.6262 76.9224C90.4483 76.5924 89.6006 76.2044 88.8154 75.8432C88.3737 75.6381 87.1022 75.0495 85.5585 73.9926C83.3546 72.4854 83.2698 71.8968 83.2832 71.6158C83.301 71.2903 83.4795 70.9425 83.7561 70.773C84.1264 70.559 84.6573 70.6749 85.0946 71.0807Z" fill="white"/>
<path d="M103.694 78.7327C103.61 78.6302 103.48 78.4741 103.257 78.434C102.909 78.3715 102.646 78.6168 102.61 78.648C101.794 79.2366 99.7416 80.5566 96.8104 80.6993C96.7836 80.6993 96.7435 80.6993 96.7078 80.7037C96.5293 80.7037 95.9449 80.7082 95.7664 80.6993C92.8397 80.5566 90.7829 79.2411 89.9665 78.648C89.9308 78.6168 89.6676 78.3715 89.3196 78.434C89.0965 78.4741 88.9626 78.6346 88.8823 78.7327C88.5031 79.192 88.5968 79.8163 88.6236 79.9813C88.637 80.0304 88.6593 80.1017 88.6994 80.182C88.7753 80.347 88.8779 80.4718 89.1366 80.7126C89.266 80.833 89.4311 80.9802 89.6319 81.1407C90.7428 81.939 93.0048 83.192 96.2839 83.1073C99.5631 83.1875 101.825 81.939 102.936 81.1407C103.137 80.9802 103.302 80.833 103.431 80.7126C103.69 80.4718 103.793 80.347 103.868 80.182C103.909 80.1017 103.931 80.0304 103.944 79.9813C103.98 79.8163 104.074 79.192 103.694 78.7327Z" fill="white"/>
<path d="M88.8734 4.45927C90.1054 4.45927 91.1042 3.46103 91.1042 2.22964C91.1042 0.998242 90.1054 0 88.8734 0C87.6414 0 86.6427 0.998242 86.6427 2.22964C86.6427 3.46103 87.6414 4.45927 88.8734 4.45927Z" fill="white"/>
<path d="M105.653 4.45927C106.885 4.45927 107.884 3.46103 107.884 2.22964C107.884 0.998242 106.885 0 105.653 0C104.421 0 103.422 0.998242 103.422 2.22964C103.422 3.46103 104.421 4.45927 105.653 4.45927Z" fill="white"/>
</svg>
