<svg width="241" height="107" viewBox="0 0 241 107" fill="none" xmlns="http://www.w3.org/2000/svg">
<g clip-path="url(#clip0_406_715)">
<path d="M6.65508 57.53V66.9268H21.0222V57.53C21.0222 56.1854 21.3276 55.1769 21.9304 54.5124C22.5333 53.8401 23.3319 53.5039 24.3184 53.5039C25.3206 53.5039 26.1271 53.8322 26.7534 54.4967C27.3719 55.1612 27.6851 56.1697 27.6851 57.53V83.3751C27.6851 84.7354 27.372 85.7438 26.7456 86.4162C26.1192 87.0885 25.3128 87.4246 24.3263 87.4246C23.3241 87.4246 22.5255 87.0885 21.9304 86.4083C21.3354 85.7282 21.0379 84.7197 21.0379 83.3751V72.3366H6.65508V83.3673C6.65508 84.7276 6.3419 85.736 5.71554 86.4083C5.08918 87.0807 4.28274 87.4168 3.29622 87.4168C2.29404 87.4168 1.49544 87.0807 0.900393 86.4005C0.297521 85.7204 0 84.7119 0 83.3673V57.53C0 56.1854 0.297521 55.1769 0.884734 54.5124C1.47195 53.8401 2.27839 53.5039 3.29622 53.5039C4.2984 53.5039 5.10484 53.8322 5.7312 54.4967C6.3419 55.1612 6.65508 56.1697 6.65508 57.53Z" fill="#1D1D1B"/>
<path d="M56.4743 59.1796H41.4808V67.2318H55.2842C56.302 67.2318 57.0537 67.4585 57.5547 67.9119C58.0558 68.3654 58.3064 68.9673 58.3064 69.71C58.3064 70.4527 58.0637 71.0624 57.5704 71.5315C57.0771 72.0006 56.3177 72.2351 55.2842 72.2351H41.4808V81.5693H56.991C58.0323 81.5693 58.8231 81.8117 59.3555 82.2964C59.8879 82.7811 60.1541 83.4299 60.1541 84.2352C60.1541 85.0091 59.8879 85.6423 59.3555 86.127C58.8231 86.6117 58.0402 86.8541 56.991 86.8541H38.9049C37.4564 86.8541 36.4151 86.5336 35.7809 85.8925C35.1467 85.2515 34.8257 84.2117 34.8257 82.7811V58.1321C34.8257 57.1783 34.9666 56.3966 35.2485 55.7946C35.5303 55.1926 35.9766 54.747 36.5795 54.4734C37.1824 54.1998 37.9575 54.0591 38.897 54.0591H56.4664C57.5313 54.0591 58.3142 54.2936 58.8309 54.7627C59.3477 55.2317 59.6061 55.8493 59.6061 56.6076C59.6061 57.3816 59.3477 58.007 58.8309 58.476C58.322 58.9451 57.5312 59.1796 56.4743 59.1796Z" fill="#1D1D1B"/>
<path d="M74.3725 72.8292H72.0394V83.3674C72.0394 84.7511 71.734 85.7752 71.1233 86.4319C70.5126 87.0886 69.714 87.4169 68.7275 87.4169C67.6627 87.4169 66.8484 87.073 66.2612 86.385C65.6818 85.6971 65.3843 84.6886 65.3843 83.3674V58.1321C65.3843 56.7014 65.7053 55.6617 66.3473 55.0206C66.9893 54.3796 68.0306 54.0591 69.4634 54.0591H80.2838C81.7793 54.0591 83.0555 54.1216 84.1125 54.2467C85.1694 54.3718 86.1325 54.6298 86.978 55.0206C88.0115 55.4506 88.9198 56.076 89.7106 56.8812C90.5013 57.6865 91.1042 58.6246 91.5113 59.6878C91.9185 60.751 92.1299 61.8845 92.1299 63.0806C92.1299 65.5276 91.4409 67.482 90.055 68.9439C88.6692 70.4058 86.5787 71.4455 83.768 72.0553C84.9502 72.6807 86.0777 73.6032 87.1503 74.8305C88.2229 76.0501 89.186 77.3556 90.0316 78.7315C90.8771 80.1074 91.5348 81.3583 92.0046 82.4684C92.4744 83.5785 92.7093 84.3446 92.7093 84.7589C92.7093 85.1889 92.5683 85.6189 92.2943 86.0489C92.0203 86.471 91.6444 86.8072 91.1668 87.0573C90.6892 87.2997 90.1333 87.4248 89.507 87.4248C88.7632 87.4248 88.129 87.2528 87.6279 86.901C87.119 86.5492 86.6805 86.1036 86.3204 85.572C85.9524 85.0326 85.4591 84.243 84.8328 83.2032L82.1629 78.7706C81.2077 77.1446 80.3543 75.9094 79.5948 75.0573C78.8432 74.2051 78.0759 73.6266 77.3008 73.3139C76.5335 72.9856 75.5548 72.8292 74.3725 72.8292ZM78.1855 59.0467H72.0472V68.0605H78.0054C79.6027 68.0605 80.9493 67.9198 82.0376 67.6461C83.1259 67.3725 83.9637 66.9035 84.5352 66.239C85.1068 65.5745 85.3965 64.6598 85.3965 63.495C85.3965 62.5881 85.1616 61.7829 84.6997 61.0871C84.2377 60.3914 83.5957 59.8754 82.7736 59.5314C81.9985 59.2109 80.4717 59.0467 78.1855 59.0467Z" fill="#1D1D1B"/>
<path d="M166.087 86.8619H156.05C154.601 86.8619 153.568 86.5336 152.949 85.8925C152.331 85.2436 152.018 84.2117 152.018 82.7967V58.1321C152.018 56.6858 152.331 55.6461 152.973 55.0128C153.607 54.3796 154.633 54.0591 156.058 54.0591H166.706C168.272 54.0591 169.634 54.1529 170.785 54.3483C171.936 54.5438 172.969 54.919 173.878 55.4663C174.653 55.9275 175.342 56.5138 175.937 57.2252C176.532 57.9366 176.994 58.7184 177.307 59.5705C177.62 60.4305 177.777 61.3373 177.777 62.2911C177.777 65.5745 176.132 67.9745 172.844 69.4989C177.158 70.8748 179.319 73.5406 179.319 77.512C179.319 79.3491 178.849 80.9987 177.91 82.4684C176.97 83.9381 175.702 85.0247 174.097 85.7205C173.095 86.1348 171.944 86.4319 170.644 86.6039C169.336 86.7759 167.818 86.8619 166.087 86.8619ZM158.673 59.0467V67.5289H164.772C166.432 67.5289 167.708 67.3725 168.616 67.0598C169.517 66.7471 170.213 66.153 170.691 65.2696C171.067 64.6442 171.255 63.9406 171.255 63.1666C171.255 61.5093 170.667 60.407 169.485 59.8676C168.303 59.3204 166.502 59.0546 164.083 59.0546H158.673V59.0467ZM165.594 72.2976H158.673V81.8742H165.821C170.315 81.8742 172.562 80.256 172.562 77.0195C172.562 75.3621 171.983 74.166 170.816 73.4156C169.65 72.6651 167.911 72.2976 165.594 72.2976Z" fill="#1D1D1B"/>
<path d="M206.714 59.1796H191.721V67.2318H205.524C206.542 67.2318 207.294 67.4585 207.795 67.9119C208.296 68.3654 208.547 68.9673 208.547 69.71C208.547 70.4527 208.304 71.0624 207.811 71.5315C207.317 72.0006 206.558 72.2351 205.524 72.2351H191.721V81.5693H207.231C208.273 81.5693 209.063 81.8117 209.596 82.2964C210.128 82.7811 210.394 83.4299 210.394 84.2352C210.394 85.0091 210.128 85.6423 209.596 86.127C209.063 86.6117 208.28 86.8541 207.231 86.8541H189.145C187.697 86.8541 186.655 86.5336 186.021 85.8925C185.387 85.2515 185.066 84.2117 185.066 82.7811V58.1321C185.066 57.1783 185.207 56.3966 185.489 55.7946C185.771 55.1926 186.217 54.747 186.82 54.4734C187.423 54.1998 188.198 54.0591 189.137 54.0591H206.707C207.771 54.0591 208.554 54.2936 209.071 54.7627C209.588 55.2317 209.846 55.8493 209.846 56.6076C209.846 57.3816 209.588 58.007 209.071 58.476C208.562 58.9451 207.779 59.1796 206.714 59.1796Z" fill="#1D1D1B"/>
<path d="M237.328 59.1796H222.335V67.2318H236.138C237.156 67.2318 237.907 67.4585 238.408 67.9119C238.91 68.3654 239.16 68.9673 239.16 69.71C239.16 70.4527 238.917 71.0624 238.424 71.5315C237.931 72.0006 237.171 72.2351 236.138 72.2351H222.335V81.5693H237.845C238.886 81.5693 239.677 81.8117 240.209 82.2964C240.742 82.7811 241.008 83.4299 241.008 84.2352C241.008 85.0091 240.742 85.6423 240.209 86.127C239.677 86.6117 238.894 86.8541 237.845 86.8541H219.759C218.31 86.8541 217.269 86.5336 216.635 85.8925C216 85.2515 215.679 84.2117 215.679 82.7811V58.1321C215.679 57.1783 215.82 56.3966 216.102 55.7946C216.384 55.1926 216.83 54.747 217.433 54.4734C218.036 54.1998 218.811 54.0591 219.751 54.0591H237.32C238.385 54.0591 239.168 54.2936 239.685 54.7627C240.201 55.2317 240.46 55.8493 240.46 56.6076C240.46 57.3816 240.201 58.007 239.685 58.476C239.176 58.9451 238.385 59.1796 237.328 59.1796Z" fill="#1D1D1B"/>
<path d="M132.898 18.7623C133.07 18.2072 133.29 17.2769 132.796 15.6743C132.499 14.6971 131.849 12.5316 130.502 11.1401L133.156 6.30099C133.603 5.62867 134.166 4.33876 133.979 3.55699C133.83 2.93158 133.321 2.42344 132.483 2.29835C131.638 2.17327 131.082 2.82995 130.643 3.55699L127.731 8.74009C126.65 7.88797 125.75 7.458 124.145 6.96548C120.159 5.83193 116.605 7.73161 116.018 8.11468L113.536 3.58826C113.207 2.87686 112.228 2.24363 111.445 2.30617C110.905 2.35308 110.412 2.73614 110.044 3.46318C109.668 4.20586 110.576 5.89447 110.968 6.62933L112.949 10.374C112.949 10.3896 112.949 10.4052 112.941 10.4209C112.588 10.7805 107.906 15.7603 109.378 24.1565C109.386 24.1799 109.363 24.1956 109.339 24.1799C107.75 22.8509 105.205 21.0451 101.713 19.7395C97.681 18.2307 91.0024 17.5506 86.3674 18.8327C84.8876 19.2392 73.206 22.6477 71.413 32.0132C70.5518 36.5318 72.3917 40.2686 73.1277 41.7071C78.2012 51.612 90.9085 52.8472 91.4565 52.8941C96.0055 53.2694 99.8106 52.1671 100.993 51.8153C104.36 50.8146 107.17 49.2433 109.676 47.8361C111.289 46.9293 112.604 46.1006 113.52 45.4986C115.587 43.9898 118.836 41.5898 122.775 38.5722C131.904 31.5754 132.726 30.4419 136.147 28.8783C138.285 27.9011 145.269 24.6177 153.106 26.7988C154.758 27.2601 158.399 28.3155 161.272 31.5598C161.899 32.2634 162.948 33.4751 163.613 35.367C163.778 35.8282 165.023 39.5416 163.355 43.2159C161.186 48.0003 155.635 49.3136 153.036 49.8921C150.389 50.4863 147.657 50.5801 144.956 50.2908C143.139 50.0954 141.009 49.814 138.661 49.3996C131.739 48.1801 130.244 47.1169 126.611 46.5462C124.395 46.1944 113.168 44.7325 104.853 52.1749C97.6027 58.6635 97.219 67.7476 97.1956 68.7092C97.1721 69.6629 97.0781 80.076 105.55 87.0572C113.285 93.4364 124.505 93.9445 132.624 88.9882C136.907 86.3771 140.501 82.1868 142.646 76.3236C143.781 73.134 144.055 70.4056 144.102 68.5997C144.18 65.418 143.609 63.1196 142.607 61.3372C141.839 59.9691 141.135 59.4453 140.399 59.2733C139.397 59.0388 138.52 59.5078 138.402 59.5782C137.518 60.0707 137.181 60.8681 137.103 61.0948C137.095 61.1183 136.5 63.0023 137.713 64.1202C139.162 65.4571 138.896 72.9307 135.544 78.833C134.895 79.9822 134.276 80.7484 134.073 80.9985C132.193 83.2813 130.103 84.3757 129.077 84.9152C126.893 86.0644 124.544 86.6272 122.493 86.9008C118.758 87.3934 114.976 86.5803 111.743 84.6572C110.6 83.977 106.286 81.3816 104.109 76.0969C100.468 67.2473 106.098 58.945 106.544 58.3039C107.648 56.9358 109.652 54.8251 112.753 53.3006C113.833 52.769 115.744 51.9482 118.468 51.612C126.838 50.5801 134.362 55.0049 143.46 55.9039C148.737 56.4199 153.239 55.9743 156.418 55.4348C157.725 55.216 158.986 54.8173 160.16 54.1997C162.595 52.9254 166.44 50.2361 168.515 45.2406C168.804 44.5371 169.039 43.8491 169.227 43.169C169.227 43.169 169.9 40.6986 169.838 38.322C169.705 33.6705 166.087 29.3005 165.696 28.8392C161.891 24.3441 156.989 22.9056 154.735 22.2802C144.627 19.4581 135.333 23.1793 131.825 25.4386C126.415 28.9252 122.226 32.0445 119.408 34.249C116.26 36.7038 104.892 45.7488 98.6284 47.2498C96.4126 47.7814 94.189 47.8752 94.189 47.8752C93.9698 47.8752 91.574 47.9768 89.2956 47.5547C88.1916 47.3514 79.8219 45.8113 77.0033 39.0413C76.6744 38.2439 75.7505 35.9689 76.189 33.0998C76.9093 28.3936 80.9102 24.4301 86.4691 22.6789C86.4691 22.6789 94.0481 19.7473 101.752 23.3982C102.598 23.7969 105.033 25.0242 106.004 25.8529C106.082 25.9233 106.372 26.1656 106.795 26.447C106.951 26.5487 107.57 26.9395 108.235 27.1741C108.76 27.3539 110.083 27.8073 111.359 27.1663C112.4 26.6425 112.831 25.6809 112.964 25.3838C113.387 24.4457 113.332 23.5311 113.301 23.1011C113.277 22.7649 113.246 22.7884 113.183 22.2099C113.136 21.819 113.058 21.0763 113.089 20.1695C113.129 19.0125 113.324 18.0822 113.473 17.402C113.504 17.2691 113.536 17.1284 113.551 17.0502C114.115 15.0646 115.517 13.5792 115.517 13.5792C115.517 13.5714 115.603 13.4932 115.681 13.415C116.354 12.7427 118.539 10.7805 121.639 11.0072C124.027 11.1792 126.235 12.6098 127.363 14.4782C128.882 16.9955 127.856 19.3877 129.531 20.2867C130.205 20.6464 131.246 20.7323 131.982 20.2555C132.569 19.8411 132.765 19.1845 132.898 18.7623Z" fill="url(#paint0_linear_406_715)"/>
<path d="M105.957 91.5055C106.951 92.3576 108.4 93.4599 110.271 94.4371C115.039 96.9309 119.423 97.0091 121.451 96.9153C128.059 96.5948 132.702 93.2879 134.519 91.8338C134.597 91.7557 135.192 91.1459 135.975 91.3022C136.085 91.3257 136.703 91.4508 136.962 92.0449C137.259 92.725 136.836 93.4286 136.766 93.5459C136.766 93.5459 136.727 93.6084 136.664 93.6866C136.609 93.7413 136.523 93.8352 136.406 93.9524C135.834 94.5231 134.041 96.2195 129.383 98.0879C128.913 98.2756 128.208 98.5492 127.347 98.8463C126.392 99.1668 125.069 99.5342 123.448 99.7375C121.397 99.9955 119.815 99.8625 118.609 99.7609C117.435 99.6593 116.08 99.5264 114.373 99.0495C112.855 98.6274 111.766 98.127 110.756 97.658C110.193 97.4 108.548 96.6339 106.56 95.2736C103.718 93.3348 103.608 92.5765 103.631 92.2169C103.655 91.8026 103.882 91.3491 104.242 91.1381C104.712 90.8332 105.401 90.9817 105.957 91.5055Z" fill="#FEB501"/>
<path d="M129.931 101.356C129.821 101.223 129.657 101.02 129.367 100.973C128.921 100.894 128.576 101.207 128.537 101.246C127.488 102.005 124.842 103.701 121.068 103.889C121.029 103.889 120.982 103.889 120.935 103.889C120.7 103.889 119.948 103.896 119.721 103.889C115.947 103.709 113.301 102.012 112.252 101.246C112.205 101.207 111.868 100.887 111.422 100.973C111.132 101.027 110.96 101.231 110.858 101.356C110.373 101.942 110.49 102.755 110.529 102.966C110.545 103.029 110.576 103.122 110.623 103.224C110.725 103.435 110.85 103.599 111.187 103.904C111.351 104.061 111.571 104.248 111.821 104.451C113.254 105.483 116.166 107.094 120.394 106.984C124.622 107.086 127.535 105.476 128.968 104.451C129.226 104.248 129.437 104.061 129.602 103.904C129.939 103.592 130.064 103.435 130.166 103.224C130.213 103.122 130.244 103.029 130.26 102.966C130.299 102.755 130.416 101.95 129.931 101.356Z" fill="#FEB501"/>
<path d="M110.835 5.73815C112.422 5.73815 113.708 4.45362 113.708 2.86907C113.708 1.28453 112.422 0 110.835 0C109.248 0 107.961 1.28453 107.961 2.86907C107.961 4.45362 109.248 5.73815 110.835 5.73815Z" fill="#F38800"/>
<path d="M132.46 5.73815C134.047 5.73815 135.333 4.45362 135.333 2.86907C135.333 1.28453 134.047 0 132.46 0C130.873 0 129.586 1.28453 129.586 2.86907C129.586 4.45362 130.873 5.73815 132.46 5.73815Z" fill="#F38800"/>
</g>
<defs>
<linearGradient id="paint0_linear_406_715" x1="122.106" y1="8.97603" x2="116.516" y2="105.187" gradientUnits="userSpaceOnUse">
<stop/>
<stop offset="0.1256" stop-color="#FF9A00"/>
<stop offset="0.7518" stop-color="#F9B233"/>
<stop offset="0.9207" stop-color="#FEC400"/>
</linearGradient>
<clipPath id="clip0_406_715">
<rect width="241" height="107" fill="white"/>
</clipPath>
</defs>
</svg>
