<svg width="6" height="12" viewBox="0 0 6 12" fill="none" xmlns="http://www.w3.org/2000/svg">
<path d="M3 0.993116C2.67744 0.993116 2.36809 1.12391 2.14001 1.35671C1.91192 1.58952 1.78378 1.90527 1.78378 2.23451V7.26861L1.62681 7.41593C1.32665 7.69803 1.11687 8.06603 1.02494 8.4718C0.933001 8.87756 0.963176 9.3022 1.11152 9.69018C1.25986 10.0782 1.51946 10.4114 1.85637 10.6463C2.19328 10.8813 2.59181 11.007 2.99984 11.007C3.40787 11.007 3.8064 10.8813 4.14331 10.6463C4.48021 10.4114 4.73982 10.0782 4.88816 9.69018C5.0365 9.3022 5.06668 8.87756 4.97474 8.4718C4.8828 8.06603 4.67303 7.69803 4.37286 7.41593L4.21622 7.26861V2.23451C4.21622 1.90527 4.08808 1.58952 3.85999 1.35671C3.63191 1.12391 3.32256 0.993116 3 0.993116ZM0.810812 2.23451C0.810812 1.64188 1.04146 1.07352 1.45201 0.654473C1.86256 0.235421 2.41939 0 3 0C3.58061 0 4.13744 0.235421 4.54799 0.654473C4.95854 1.07352 5.18919 1.64188 5.18919 2.23451V6.84422C5.5892 7.27998 5.85565 7.82561 5.95576 8.41395C6.05586 9.00229 5.98524 9.60766 5.7526 10.1556C5.51996 10.7035 5.13544 11.17 4.64637 11.4977C4.1573 11.8254 3.58504 12 3 12C2.41496 12 1.8427 11.8254 1.35363 11.4977C0.864564 11.17 0.480045 10.7035 0.247401 10.1556C0.0147568 9.60766 -0.0558594 9.00229 0.0442443 8.41395C0.144348 7.82561 0.410803 7.27998 0.810812 6.84422V2.23451ZM4.2973 8.93804C4.29718 9.17827 4.23305 9.41394 4.11176 9.61981C3.99047 9.82568 3.81659 9.994 3.60876 10.1067C3.40092 10.2195 3.16696 10.2723 2.93193 10.2597C2.69689 10.2471 2.46965 10.1695 2.27453 10.0352C2.07942 9.90083 1.92378 9.71484 1.8243 9.49713C1.72481 9.27942 1.68523 9.03818 1.70978 8.79926C1.73434 8.56035 1.82211 8.33275 1.96369 8.14085C2.10527 7.94895 2.29533 7.79997 2.51351 7.70989V4.13798C2.51351 4.00629 2.56477 3.87999 2.656 3.78686C2.74724 3.69374 2.87098 3.64142 3 3.64142C3.12902 3.64142 3.25276 3.69374 3.344 3.78686C3.43523 3.87999 3.48649 4.00629 3.48649 4.13798V7.70989C3.72612 7.80888 3.93132 7.97867 4.07578 8.19749C4.22024 8.4163 4.29738 8.67418 4.2973 8.93804Z" fill="#FF5656"/>
</svg>
