<svg width="10" height="9" viewBox="0 0 10 9" fill="none" xmlns="http://www.w3.org/2000/svg">
<path d="M4.89797 0C5.41758 0 5.91591 0.207506 6.28333 0.576869C6.65075 0.946233 6.85716 1.4472 6.85716 1.96956C6.85716 2.329 6.7641 2.66382 6.59267 2.95433H7.83676C8.30206 2.95433 8.6939 3.28423 8.79186 3.72246C9.77636 7.6665 9.79595 7.7699 9.79595 7.87822C9.79595 8.1394 9.69274 8.38988 9.50903 8.57457C9.32532 8.75925 9.07616 8.863 8.81635 8.863H0.979595C0.71979 8.863 0.470626 8.75925 0.286917 8.57457C0.103207 8.38988 0 8.1394 0 7.87822C0 7.7699 0.0195919 7.6665 1.00408 3.72246C1.10204 3.28423 1.49388 2.95433 1.95919 2.95433H3.20327C3.02819 2.65614 2.93678 2.31581 2.93878 1.96956C2.93878 1.4472 3.1452 0.946233 3.51262 0.576869C3.88004 0.207506 4.37836 0 4.89797 0ZM4.89797 0.984778C4.63817 0.984778 4.38901 1.08853 4.2053 1.27321C4.02159 1.45789 3.91838 1.70838 3.91838 1.96956C3.91838 2.23074 4.02159 2.48122 4.2053 2.6659C4.38901 2.85058 4.63817 2.95433 4.89797 2.95433C5.15778 2.95433 5.40694 2.85058 5.59065 2.6659C5.77436 2.48122 5.87757 2.23074 5.87757 1.96956C5.87757 1.70838 5.77436 1.45789 5.59065 1.27321C5.40694 1.08853 5.15778 0.984778 4.89797 0.984778Z" fill="#023C5F"/>
</svg>
